<svg id="Camada_1" data-name="Camada 1" xmlns="http://www.w3.org/2000/svg" viewBox="0 0 10.51 10.5"><defs><style>.cls-1{fill:#1d1d1b;}</style></defs><path class="cls-1" d="M26.31,21.76a2.9,2.9,0,0,1-3,3c-.86.05-3.46.05-4.33,0a3.14,3.14,0,0,1-2.2-.84,3.11,3.11,0,0,1-.85-2.2c-.05-.87-.05-3.47,0-4.34a3.11,3.11,0,0,1,.85-2.2,3.14,3.14,0,0,1,2.2-.84c.87-.05,3.47-.05,4.33,0a2.9,2.9,0,0,1,3,3C26.36,18.29,26.36,20.89,26.31,21.76Zm-.91-2.17a11.41,11.41,0,0,0-.21-3.1,1.74,1.74,0,0,0-1-1,11.3,11.3,0,0,0-3.09-.22,11.35,11.35,0,0,0-3.1.22,1.77,1.77,0,0,0-1,1,11.79,11.79,0,0,0-.21,3.1,11.82,11.82,0,0,0,.21,3.1,1.77,1.77,0,0,0,1,1,11.35,11.35,0,0,0,3.1.22,11.3,11.3,0,0,0,3.09-.22,1.71,1.71,0,0,0,1-1A11.38,11.38,0,0,0,25.4,19.59Zm-1.61,0A2.69,2.69,0,1,1,21.1,16.9,2.68,2.68,0,0,1,23.79,19.59Zm-.94,0a1.75,1.75,0,1,0-1.75,1.75A1.75,1.75,0,0,0,22.85,19.59Zm1-2.17a.63.63,0,0,1-.63-.63.63.63,0,1,1,.63.63Z" transform="translate(-15.84 -14.34)"/></svg>