<svg xmlns="http://www.w3.org/2000/svg" viewBox="0 0 12 9.75"><defs><style>.cls-1{fill:#1d1d1b;}</style></defs><g id="Camada_2" data-name="Camada 2"><g id="Camada_1-2" data-name="Camada 1"><path class="cls-1" d="M10.77,2.75a7,7,0,0,1-7,7A7,7,0,0,1,0,8.64a3.89,3.89,0,0,0,.59,0,5,5,0,0,0,3.06-1,2.46,2.46,0,0,1-2.3-1.7,3.44,3.44,0,0,0,.46,0,2.82,2.82,0,0,0,.65-.08,2.46,2.46,0,0,1-2-2.41v0a2.55,2.55,0,0,0,1.11.31A2.47,2.47,0,0,1,.5,1.69,2.35,2.35,0,0,1,.84.45,7,7,0,0,0,5.91,3a2.6,2.6,0,0,1-.06-.56A2.46,2.46,0,0,1,10.1.78a5.06,5.06,0,0,0,1.57-.6,2.53,2.53,0,0,1-1.09,1.36A5.13,5.13,0,0,0,12,1.16a5.29,5.29,0,0,1-1.23,1.27Z"/></g></g></svg>